Coordinates
version=1
nRows=14
nColumns=33
inDegrees=yes

Units are S.I. units (second, meters, Newtons, ...)
Angles are in degrees.

endheader
time	ground_thorax_rot_x	ground_thorax_rot_y	ground_thorax_rot_z	ground_thorax_tx	ground_thorax_ty	ground_thorax_tz	clav_prot_r	clav_elev_r	scapula_abduction_r	scapula_elevation_r	scapula_upward_rot_r	scapula_winging_r	shoulder_elv_r	plane_of_elev_r	axial_rot_r	elbow_flexion_r	pro_sup_r	wrist_flex_r	wrist_dev_r	clav_prot_l	clav_elev_l	scapula_abduction_l	scapula_elevation_l	scapula_upward_rot_l	scapula_winging_l	shoulder_elv_l	plane_of_elev_l	axial_rot_l	elbow_flexion_l	pro_sup_l	wrist_flex_l	wrist_dev_l
      4.35000000	     33.60629084	     26.76399758	     32.57953739	   -159.61468076	    811.67433415	      7.33800175	     13.19893559	     39.35541833	     38.29112195	     45.00000000	    -33.74150200	  -1889.55635692	  -2093.92100319	     32.96677642	     53.40505346	   1453.07245749	     27.23556425	     19.59496648	      7.75993727	      7.74236885	    -45.00000000	    -37.37220320	     45.00000000	    -45.00000000	   1536.92957380	  -3693.36015603	    138.37391220	    149.92592199	   -708.99607071	     14.86514681	      6.44904480	    -20.41627993
      4.36000000	     33.84948960	     26.43474940	     32.03518955	   -162.49074124	    812.88515576	      7.30033133	     13.20815268	     39.53279842	     38.26035417	     45.00000000	    -33.50158035	  -1889.58526209	  -2093.65106768	     32.94005539	     53.39587818	   1453.17648141	     26.91794751	     19.62757909	      7.70573518	      7.73760578	    -45.00000000	    -37.37617100	     45.00000000	    -45.00000000	   1536.95415691	  -3693.13623031	    138.43197910	    149.77830432	   -708.90450925	     14.35568310	      6.39549963	    -20.42571359
      4.37000000	     34.03152524	     26.10524953	     31.52354658	   -165.33858920	    814.05403710	      7.25721228	     13.16443421	     39.46190491	     38.36934996	     45.00000000	    -33.46776825	  -1889.68388541	  -2093.50623111	     33.00259377	     53.33840441	   1453.17010631	     26.53120722	     19.62779769	      7.62489457	      7.79500321	    -45.00000000	    -37.40183666	     45.00000000	    -45.00000000	   1537.14181399	  -3692.96820781	    138.36183934	    149.87210524	   -708.94209308	     13.78472647	      6.35113355	    -20.40747507
      4.38000000	     34.37897166	     25.49344711	     30.46773573	   -168.16375069	    815.18893761	      7.21209273	     13.11393342	     40.07835834	     38.28643382	     45.00000000	    -32.30604073	  -1889.69156363	  -2093.55006005	     32.67816222	     53.03505700	   1453.17659357	     26.21016657	     19.64128162	      7.51127901	      7.58391457	    -45.00000000	    -37.53035055	     45.00000000	    -43.09458662	   1536.93272223	  -3693.07731654	    139.00773878	    149.58763179	   -709.02375162	     13.49890055	      6.66300134	    -20.49431438
      4.39000000	     34.33127926	     25.53154588	     30.67956625	   -170.97427897	    816.30784444	      7.17452654	     13.09817463	     39.33799334	     38.52253952	     45.00000000	    -33.48688866	  -1889.97190555	  -2093.27560384	     33.10714769	     53.11146109	   1453.13432993	     25.62226658	     19.61699078	      7.40921009	      7.90284226	    -45.00000000	    -37.42136724	     45.00000000	    -45.00000000	   1537.47333549	  -3692.67220388	    138.30076549	    150.03538089	   -708.99740359	     12.64115327	      6.29006161	    -20.38584466
      4.40000000	     34.55056032	     25.16939650	     30.02454744	   -173.76793432	    817.40876855	      7.14518173	     13.04515436	     39.37483757	     38.54625600	     45.00000000	    -33.33624973	  -1890.09826540	  -2093.16066460	     33.09981604	     53.01752301	   1453.16248877	     25.03800408	     19.64192018	      7.36648369	      7.86668043	    -45.00000000	    -37.54037367	     45.00000000	    -44.63883925	   1537.55770258	  -3692.57087732	    138.33957724	    150.14412404	   -708.96819901	     12.00666351	      6.30761352	    -20.39736021
      4.41000000	     34.67743637	     24.84157442	     29.64850553	   -176.54616876	    818.48928849	      7.12339239	     12.97535533	     39.24699036	     38.65584592	     45.00000000	    -33.42197909	  -1890.22974756	  -2093.08636849	     33.17602359	     52.91930200	   1453.08704138	     24.37249944	     19.62625886	      7.27113063	      7.91983594	    -45.00000000	    -37.56902893	     45.00000000	    -44.63996988	   1537.77481347	  -3692.48491958	    138.31739722	    150.24711486	   -709.06763827	     11.34654759	      6.26357662	    -20.36493191
      4.42000000	     34.88303271	     24.50008816	     28.99021355	   -179.30901164	    819.54754046	      7.10802224	     12.96640288	     39.36653008	     38.57856899	     45.00000000	    -33.19258226	  -1890.25271689	  -2092.92418859	     33.12573603	     52.92186594	   1453.11334013	     23.79598046	     19.65558089	      7.30080402	      7.89037163	    -45.00000000	    -37.57259008	     45.00000000	    -44.20140694	   1537.83691000	  -3692.36012971	    138.38858960	    149.87718954	   -709.01493360	     10.87439496	      6.25735538	    -20.38389459
      4.43000000	     35.01880338	     24.17461787	     28.57506903	   -182.05218589	    820.58107915	      7.09737483	     12.91313438	     39.27549111	     38.63752399	     45.00000000	    -33.19742394	  -1890.37591411	  -2092.84757693	     33.17464023	     52.90071303	   1453.06491256	     23.19277212	     19.64695072	      7.22856100	      7.93784525	    -45.00000000	    -37.55141895	     45.00000000	    -44.08151650	   1538.05525935	  -3692.26728118	    138.34028903	    149.85431042	   -709.09291693	     10.39237881	      6.17981457	    -20.36662835
      4.44000000	     35.14588655	     23.88862130	     28.17770089	   -184.77372703	    821.58937397	      7.08941600	     12.85737699	     39.23896626	     38.68051946	     45.00000000	    -33.32418327	  -1890.48629442	  -2092.73957674	     33.22365498	     52.85122871	   1453.04218349	     22.53398993	     19.64636516	      7.11452521	      7.96527008	    -45.00000000	    -37.63681609	     45.00000000	    -44.11485404	   1538.18469389	  -3692.18316346	    138.37945062	    150.02819756	   -709.07590081	      9.91441646	      6.17466000	    -20.38793898
      4.45000000	     35.31062333	     23.53002900	     27.62942755	   -187.46700950	    822.57033241	      7.08191251	     12.83810441	     39.28318913	     38.62934071	     45.00000000	    -33.17124818	  -1890.50171352	  -2092.60024490	     33.20514376	     52.92987941	   1453.04138110	     22.01625942	     19.66378133	      7.12339451	      7.95413640	    -45.00000000	    -37.63324017	     45.00000000	    -43.79848873	   1538.31355396	  -3692.06539191	    138.43050493	    149.66055155	   -709.06359671	      9.64090725	      6.12705711	    -20.40789777
      4.46000000	     35.43712815	     23.21960382	     27.20696674	   -190.12815479	    823.52348513	      7.07274491	     12.80056474	     39.25711219	     38.62217958	     45.00000000	    -33.17271546	  -1890.57685650	  -2092.50313882	     33.22692570	     52.97679707	   1453.02277385	     21.54163869	     19.66498141	      7.04401602	      7.97713854	    -45.00000000	    -37.63501505	     45.00000000	    -43.66511935	   1538.47189779	  -3691.97730723	    138.42362771	    149.62405724	   -709.08596467	      9.40239188	      6.07082879	    -20.42531036
      4.47000000	     35.56216917	     22.91572709	     26.75117864	   -192.75318947	    824.44758354	      7.06022237	     12.81668274	     39.55783445	     38.53360939	     45.00000000	    -32.54357585	  -1890.52242887	  -2092.40852993	     32.84063303	     52.92240243	   1453.11882823	     21.25695177	     19.72317619	      7.13330460	      7.80067492	    -45.00000000	    -37.68051487	     45.00000000	    -42.81450233	   1538.40472815	  -3691.95475661	    138.92594895	    148.94730032	   -709.00917915	      9.40015401	      6.15731541	    -20.50114854
      4.48000000	     35.64754243	     22.68531140	     26.47390183	   -195.33678722	    825.34127227	      7.04345630	     12.77249638	     39.25544617	     38.52580073	     45.00000000	    -33.16246339	  -1890.64892629	  -2092.29064878	     33.18913621	     53.13976774	   1452.98625929	     20.96026550	     19.66797137	      6.89874159	      8.02109234	    -45.00000000	    -37.55096559	     45.00000000	    -43.48519971	   1538.71670636	  -3691.77742850	    138.48157436	    149.30142502	   -709.10996062	      9.21786401	      5.93544245	    -20.46675450
